# xmcd
#
# Track frame offsets: 
#        150
#        18882
#        39228
#        48979
#        63925
#        76725
#        88072
#        101353
#        119620
#        131652
#        149132
#        165434
#        179983
#        198683
#        216331
#        230073
#        247017
#        268444
#        279213
#        301013
#        336142
#
# Disc length: 4731 seconds
#
# Revision: 0
# Processed by: cddbd v1.5.1PL0 Copyright (c) Steve Scherf et al.
# Submitted via: ExactAudioCopy v0.95a5
#
DISCID=39127915
DTITLE=Various Artist - Bluesmasters - Dr.John
DYEAR=1900
DGENRE=Blues
TTITLE0=lko lko - Crawford
TTITLE1=Junco Parthner - Shad
TTITLE2=Tipitina - Byrd
TTITLE3=Huey Smith Medley - Smith and Vincent
TTITLE4=Travelling Mood - Waynes
TTITLE5=Life - Toussaint
TTITLE6=Let's Make A Better World - Earl King
TTITLE7=Back By The River - Quaterman
TTITLE8=I Wanna Rock - Roy Montrell and Blackwell and J.Marascalo
TTITLE9=Memories Of Prof Longhair - Roy Byrd
TTITLE10=Honey Dripper - Joseph Liggings
TTITLE11=Pretty Libby - Rebennack
TTITLE12=Makin Whoopee From Whoopee - Hill
TTITLE13=Accentuate The Positive - Harold Arlen and Johnny Mercer
TTITLE14=Mama Roux - Rebennack and Hill
TTITLE15=Wash, Mama, Wash - Rebennack
TTITLE16=Loop Garoo - Rebennack
TTITLE17=Jump Sturdy - Rebennack
TTITLE18=Qualified - Hill and Rebennack
TTITLE19=I Walk On Guilded Splinters - Rebennack
TTITLE20=Goin Back To New Orleans - Leggins
EXTD=
EXTT0=
EXTT1=
EXTT2=
EXTT3=
EXTT4=
EXTT5=
EXTT6=
EXTT7=
EXTT8=
EXTT9=
EXTT10=
EXTT11=
EXTT12=
EXTT13=
EXTT14=
EXTT15=
EXTT16=
EXTT17=
EXTT18=
EXTT19=
EXTT20=
PLAYORDER=
